<svg xmlns="http://www.w3.org/2000/svg" viewBox="0 0 800 600" width="800" height="600">
  <!-- Background -->
  <rect width="800" height="600" fill="#f0f4f8" />
  
  <!-- Shield -->
  <path d="M400 100 L550 150 L550 300 C550 400 450 500 400 520 C350 500 250 400 250 300 L250 150 Z" fill="#4f46e5" stroke="#3730a3" stroke-width="10" />
  
  <!-- Lock -->
  <rect x="350" y="250" width="100" height="80" rx="10" ry="10" fill="#ffffff" stroke="#3730a3" stroke-width="8" />
  <rect x="370" y="200" width="60" height="50" rx="25" ry="25" fill="none" stroke="#ffffff" stroke-width="12" />
  
  <!-- Data Elements -->
  <rect x="300" y="350" width="200" height="20" rx="5" ry="5" fill="#ffffff" opacity="0.7" />
  <rect x="320" y="380" width="160" height="20" rx="5" ry="5" fill="#ffffff" opacity="0.7" />
  <rect x="340" y="410" width="120" height="20" rx="5" ry="5" fill="#ffffff" opacity="0.7" />
  
  <!-- Binary Code Background -->
  <text x="100" y="150" font-family="monospace" font-size="14" fill="#a5b4fc" opacity="0.4">10110101 01101001 10010110</text>
  <text x="120" y="180" font-family="monospace" font-size="14" fill="#a5b4fc" opacity="0.4">01011010 10101101 01101001</text>
  <text x="140" y="210" font-family="monospace" font-size="14" fill="#a5b4fc" opacity="0.4">10110101 01101001 10010110</text>
  <text x="500" y="150" font-family="monospace" font-size="14" fill="#a5b4fc" opacity="0.4">10110101 01101001 10010110</text>
  <text x="520" y="180" font-family="monospace" font-size="14" fill="#a5b4fc" opacity="0.4">01011010 10101101 01101001</text>
  <text x="540" y="210" font-family="monospace" font-size="14" fill="#a5b4fc" opacity="0.4">10110101 01101001 10010110</text>
  
  <!-- Privacy Text -->
  <text x="400" y="570" font-family="Arial, sans-serif" font-size="24" fill="#4f46e5" text-anchor="middle" font-weight="bold">Data Privacy & Protection</text>
</svg>