<svg xmlns="http://www.w3.org/2000/svg" viewBox="0 0 800 600" width="800" height="600">
  <!-- Background -->
  <rect width="800" height="600" fill="#f8f9fa" />
  
  <!-- Hong Kong Skyline Silhouette -->
  <path d="M50 350 L100 300 L150 320 L200 280 L250 300 L300 250 L350 270 L400 200 L450 230 L500 180 L550 220 L600 170 L650 210 L700 190 L750 250 L750 400 L50 400 Z" fill="#4f46e5" opacity="0.1" />
  
  <!-- Hong Kong Bauhinia Flag Element -->
  <circle cx="400" cy="200" r="80" fill="#ff0000" opacity="0.1" />
  <path d="M400 140 L415 185 L460 185 L425 215 L440 260 L400 230 L360 260 L375 215 L340 185 L385 185 Z" fill="#ff0000" opacity="0.2" />
  
  <!-- Building Elements -->
  <rect x="200" y="250" width="80" height="150" fill="#4f46e5" opacity="0.7" />
  <rect x="210" y="270" width="15" height="20" fill="#ffffff" opacity="0.8" />
  <rect x="235" y="270" width="15" height="20" fill="#ffffff" opacity="0.8" />
  <rect x="255" y="270" width="15" height="20" fill="#ffffff" opacity="0.8" />
  <rect x="210" y="300" width="15" height="20" fill="#ffffff" opacity="0.8" />
  <rect x="235" y="300" width="15" height="20" fill="#ffffff" opacity="0.8" />
  <rect x="255" y="300" width="15" height="20" fill="#ffffff" opacity="0.8" />
  <rect x="210" y="330" width="15" height="20" fill="#ffffff" opacity="0.8" />
  <rect x="235" y="330" width="15" height="20" fill="#ffffff" opacity="0.8" />
  <rect x="255" y="330" width="15" height="20" fill="#ffffff" opacity="0.8" />
  
  <rect x="350" y="200" width="100" height="200" fill="#4f46e5" opacity="0.5" />
  <rect x="365" y="220" width="15" height="15" fill="#ffffff" opacity="0.8" />
  <rect x="390" y="220" width="15" height="15" fill="#ffffff" opacity="0.8" />
  <rect x="415" y="220" width="15" height="15" fill="#ffffff" opacity="0.8" />
  <rect x="365" y="245" width="15" height="15" fill="#ffffff" opacity="0.8" />
  <rect x="390" y="245" width="15" height="15" fill="#ffffff" opacity="0.8" />
  <rect x="415" y="245" width="15" height="15" fill="#ffffff" opacity="0.8" />
  <rect x="365" y="270" width="15" height="15" fill="#ffffff" opacity="0.8" />
  <rect x="390" y="270" width="15" height="15" fill="#ffffff" opacity="0.8" />
  <rect x="415" y="270" width="15" height="15" fill="#ffffff" opacity="0.8" />
  <rect x="365" y="295" width="15" height="15" fill="#ffffff" opacity="0.8" />
  <rect x="390" y="295" width="15" height="15" fill="#ffffff" opacity="0.8" />
  <rect x="415" y="295" width="15" height="15" fill="#ffffff" opacity="0.8" />
  <rect x="365" y="320" width="15" height="15" fill="#ffffff" opacity="0.8" />
  <rect x="390" y="320" width="15" height="15" fill="#ffffff" opacity="0.8" />
  <rect x="415" y="320" width="15" height="15" fill="#ffffff" opacity="0.8" />
  <rect x="365" y="345" width="15" height="15" fill="#ffffff" opacity="0.8" />
  <rect x="390" y="345" width="15" height="15" fill="#ffffff" opacity="0.8" />
  <rect x="415" y="345" width="15" height="15" fill="#ffffff" opacity="0.8" />
  
  <rect x="500" y="230" width="60" height="170" fill="#4f46e5" opacity="0.6" />
  <rect x="510" y="250" width="10" height="15" fill="#ffffff" opacity="0.8" />
  <rect x="530" y="250" width="10" height="15" fill="#ffffff" opacity="0.8" />
  <rect x="510" y="275" width="10" height="15" fill="#ffffff" opacity="0.8" />
  <rect x="530" y="275" width="10" height="15" fill="#ffffff" opacity="0.8" />
  <rect x="510" y="300" width="10" height="15" fill="#ffffff" opacity="0.8" />
  <rect x="530" y="300" width="10" height="15" fill="#ffffff" opacity="0.8" />
  <rect x="510" y="325" width="10" height="15" fill="#ffffff" opacity="0.8" />
  <rect x="530" y="325" width="10" height="15" fill="#ffffff" opacity="0.8" />
  <rect x="510" y="350" width="10" height="15" fill="#ffffff" opacity="0.8" />
  <rect x="530" y="350" width="10" height="15" fill="#ffffff" opacity="0.8" />
  
  <!-- Address Card -->
  <rect x="250" y="420" width="300" height="120" rx="10" ry="10" fill="#ffffff" stroke="#4f46e5" stroke-width="3" />
  
  <!-- Address Lines (Bilingual) -->
  <text x="270" y="450" font-family="Arial, sans-serif" font-size="14" fill="#333333">Flat D, 8/F, Tower 2</text>
  <text x="270" y="470" font-family="Arial, sans-serif" font-size="14" fill="#333333">Harbour Plaza, 18 Tak Fung St</text>
  <text x="270" y="490" font-family="Arial, sans-serif" font-size="14" fill="#333333">Hung Hom, Kowloon</text>
  <text x="270" y="510" font-family="Arial, sans-serif" font-size="14" fill="#333333">Hong Kong</text>
  
  <!-- Chinese Characters (Simplified) -->
  <text x="500" y="470" font-family="Arial, sans-serif" font-size="14" fill="#333333">香港九龙红磡</text>
  <text x="500" y="490" font-family="Arial, sans-serif" font-size="14" fill="#333333">德丰街18号海逸坊</text>
  
  <!-- Title -->
  <text x="400" y="570" font-family="Arial, sans-serif" font-size="24" fill="#4f46e5" text-anchor="middle" font-weight="bold">Hong Kong Address System</text>
</svg>